<svg xmlns="http://www.w3.org/2000/svg" width="128" height="128" viewBox="0 0 32 32" role="img" aria-label="VIG logo glass variant">
  <defs>
    <linearGradient id="slate" x1="2" y1="1" x2="30" y2="31" gradientUnits="userSpaceOnUse">
      <stop offset="0" stop-color="#eef4ff"/>
      <stop offset="0.16" stop-color="#8ba3bd"/>
      <stop offset="0.42" stop-color="#202833"/>
      <stop offset="1" stop-color="#07090c"/>
    </linearGradient>
    <linearGradient id="chrome" x1="2" y1="3" x2="30" y2="29" gradientUnits="userSpaceOnUse">
      <stop offset="0" stop-color="#ffffff"/>
      <stop offset="0.24" stop-color="#d8e5f4"/>
      <stop offset="0.48" stop-color="#8ea6bf"/>
      <stop offset="0.72" stop-color="#f6921e"/>
      <stop offset="1" stop-color="#fff0cf"/>
    </linearGradient>
    <radialGradient id="flare" cx="8" cy="6" r="17" gradientUnits="userSpaceOnUse">
      <stop offset="0" stop-color="#ffffff" stop-opacity="0.46"/>
      <stop offset="0.5" stop-color="#ffffff" stop-opacity="0.08"/>
      <stop offset="1" stop-color="#ffffff" stop-opacity="0"/>
    </radialGradient>
    <filter id="polish" x="-35%" y="-35%" width="170%" height="170%">
      <feDropShadow dx="0" dy="1.1" stdDeviation="0.8" flood-color="#000000" flood-opacity="0.6"/>
      <feDropShadow dx="0" dy="-0.4" stdDeviation="0.45" flood-color="#ffffff" flood-opacity="0.45"/>
    </filter>
    <mask id="logo-mask" maskUnits="userSpaceOnUse" x="0" y="0" width="32" height="32" mask-type="alpha">
      <path fill="#ffffff" d="M3 2h2v1h-2zM10 2h2v1h-2zM17 2h8v1h-8zM27 2h2v1h-2zM2 3h4v1h-4zM9 3h4v1h-4zM16 3h7v1h-7zM26 3h4v1h-4zM2 4h4v1h-4zM9 4h4v1h-4zM16 4h7v1h-7zM24 4h6v1h-6zM2 5h4v1h-4zM9 5h4v1h-4zM16 5h3v1h-3zM24 5h5v1h-5zM2 6h4v1h-4zM9 6h4v1h-4zM16 6h3v1h-3zM22 6h6v1h-6zM2 7h4v1h-4zM9 7h4v1h-4zM16 7h3v1h-3zM22 7h5v1h-5zM2 8h4v1h-4zM9 8h4v1h-4zM16 8h3v1h-3zM20 8h6v1h-6zM2 9h4v1h-4zM9 9h4v1h-4zM16 9h1v1h-1zM20 9h5v1h-5zM2 10h4v1h-4zM9 10h4v1h-4zM16 10h1v1h-1zM18 10h6v1h-6zM2 11h4v1h-4zM9 11h4v1h-4zM18 11h5v1h-5zM2 12h4v1h-4zM9 12h4v1h-4zM16 12h6v1h-6zM2 13h4v1h-4zM9 13h4v1h-4zM16 13h5v1h-5zM2 14h4v1h-4zM9 14h4v1h-4zM14 14h6v1h-6zM2 15h4v1h-4zM9 15h2v1h-2zM14 15h5v1h-5zM2 16h4v1h-4zM9 16h2v1h-2zM12 16h6v1h-6zM2 17h4v1h-4zM12 17h5v1h-5zM2 18h4v1h-4zM10 18h6v1h-6zM18 18h1v1h-1zM2 19h4v1h-4zM10 19h5v1h-5zM17 19h2v1h-2zM23 19h7v1h-7zM2 20h4v1h-4zM8 20h6v1h-6zM16 20h3v1h-3zM23 20h7v1h-7zM2 21h4v1h-4zM8 21h5v1h-5zM16 21h3v1h-3zM23 21h2v1h-2zM26 21h4v1h-4zM2 22h10v1h-10zM16 22h3v1h-3zM25 22h5v1h-5zM2 23h9v1h-9zM16 23h3v1h-3zM24 23h3v1h-3zM28 23h2v1h-2zM2 24h8v1h-8zM12 24h1v1h-1zM16 24h3v1h-3zM23 24h3v1h-3zM27 24h3v1h-3zM2 25h7v1h-7zM11 25h2v1h-2zM16 25h3v1h-3zM22 25h3v1h-3zM27 25h3v1h-3zM2 26h6v1h-6zM10 26h3v1h-3zM16 26h3v1h-3zM21 26h3v1h-3zM2 27h5v1h-5zM9 27h4v1h-4zM16 27h3v1h-3zM20 27h3v1h-3zM2 28h4v1h-4zM9 28h4v1h-4zM16 28h6v1h-6zM3 29h2v1h-2zM10 29h2v1h-2zM17 29h4v1h-4z"/>
    </mask>
  </defs>
  <rect x="1" y="1" width="30" height="30" rx="7" fill="url(#slate)"/>
  <rect x="1" y="1" width="30" height="30" rx="7" fill="url(#flare)"/>
  <path d="M6 4.5h20a1.5 1.5 0 0 1 1.5 1.5v20a1.5 1.5 0 0 1-1.5 1.5H6A1.5 1.5 0 0 1 4.5 26V6A1.5 1.5 0 0 1 6 4.5Z" fill="none" stroke="#ffffff" stroke-opacity="0.2"/>
  <rect x="2" y="2" width="28" height="28" fill="url(#chrome)" mask="url(#logo-mask)" filter="url(#polish)" shape-rendering="crispEdges"/>
  <path d="M4 5h24v7C19 10.2 12.2 8 4 11.2V5Z" fill="#ffffff" opacity="0.16" mask="url(#logo-mask)" shape-rendering="crispEdges"/>
</svg>
