<svg xmlns="http://www.w3.org/2000/svg" version="1.1" xmlns:xlink="http://www.w3.org/1999/xlink" xmlns:svgjs="http://svgjs.com/svgjs" width="1120" height="1362.5" viewBox="0 0 1120 1362.5" fill="#f4f1eb"><polyline points="25,25 1095,25 1095,1095 25,1095 25,25" stroke-linejoin="round" stroke-linecap="round" stroke-width="20" stroke="#30343d"></polyline><rect width="1090" height="218" fill="#30343d" rx="30" ry="30" x="15" y="1104"></rect><rect width="30" height="40" fill="#30343d" x="15" y="1094"></rect><rect width="30" height="40" fill="#30343d" x="1075" y="1094"></rect><defs><style>
            @import url('https://fonts.googleapis.com/css?family=Roboto:400');
    </style></defs><text x="560" y="1225.4285714285713" fill="#efb566" font-family="Roboto" font-size="87" text-anchor="middle" svgjs:data="{&quot;leading&quot;:&quot;0&quot;}">Open Ownix</text><rect width="1030" height="1030" fill="#f4f1eb" x="45" y="45"></rect><circle r="15" cx="380" cy="140" fill="#202329" opacity="1"></circle><circle r="15" cx="410" cy="140" fill="#202329" opacity="1"></circle><circle r="15" cx="500" cy="140" fill="#202329" opacity="1"></circle><circle r="15" cx="620" cy="140" fill="#202329" opacity="1"></circle><circle r="15" cx="650" cy="140" fill="#202329" opacity="1"></circle><circle r="15" cx="680" cy="140" fill="#202329" opacity="1"></circle><circle r="15" cx="380" cy="170" fill="#202329" opacity="1"></circle><circle r="15" cx="410" cy="170" fill="#202329" opacity="1"></circle><circle r="15" cx="470" cy="170" fill="#202329" opacity="1"></circle><circle r="15" cx="500" cy="170" fill="#202329" opacity="1"></circle><circle r="15" cx="560" cy="170" fill="#202329" opacity="1"></circle><circle r="15" cx="620" cy="170" fill="#202329" opacity="1"></circle><circle r="15" cx="680" cy="170" fill="#202329" opacity="1"></circle><circle r="15" cx="380" cy="200" fill="#202329" opacity="1"></circle><circle r="15" cx="410" cy="200" fill="#202329" opacity="1"></circle><circle r="15" cx="440" cy="200" fill="#202329" opacity="1"></circle><circle r="15" cx="560" cy="200" fill="#202329" opacity="1"></circle><circle r="15" cx="740" cy="200" fill="#202329" opacity="1"></circle><circle r="15" cx="410" cy="230" fill="#202329" opacity="1"></circle><circle r="15" cx="440" cy="230" fill="#202329" opacity="1"></circle><circle r="15" cx="500" cy="230" fill="#202329" opacity="1"></circle><circle r="15" cx="530" cy="230" fill="#202329" opacity="1"></circle><circle r="15" cx="560" cy="230" fill="#202329" opacity="1"></circle><circle r="15" cx="590" cy="230" fill="#202329" opacity="1"></circle><circle r="15" cx="650" cy="230" fill="#202329" opacity="1"></circle><circle r="15" cx="410" cy="260" fill="#202329" opacity="1"></circle><circle r="15" cx="440" cy="260" fill="#202329" opacity="1"></circle><circle r="15" cx="470" cy="260" fill="#202329" opacity="1"></circle><circle r="15" cx="530" cy="260" fill="#202329" opacity="1"></circle><circle r="15" cx="590" cy="260" fill="#202329" opacity="1"></circle><circle r="15" cx="620" cy="260" fill="#202329" opacity="1"></circle><circle r="15" cx="650" cy="260" fill="#202329" opacity="1"></circle><circle r="15" cx="710" cy="260" fill="#202329" opacity="1"></circle><circle r="15" cx="740" cy="260" fill="#202329" opacity="1"></circle><circle r="15" cx="440" cy="290" fill="#202329" opacity="1"></circle><circle r="15" cx="650" cy="290" fill="#202329" opacity="1"></circle><circle r="15" cx="410" cy="350" fill="#202329" opacity="1"></circle><circle r="15" cx="440" cy="350" fill="#202329" opacity="1"></circle><circle r="15" cx="470" cy="350" fill="#202329" opacity="1"></circle><circle r="15" cx="500" cy="350" fill="#202329" opacity="1"></circle><circle r="15" cx="530" cy="350" fill="#202329" opacity="1"></circle><circle r="15" cx="650" cy="350" fill="#202329" opacity="1"></circle><circle r="15" cx="680" cy="350" fill="#202329" opacity="1"></circle><circle r="15" cx="710" cy="350" fill="#202329" opacity="1"></circle><circle r="15" cx="740" cy="350" fill="#202329" opacity="1"></circle><circle r="15" cx="200" cy="380" fill="#202329" opacity="1"></circle><circle r="15" cx="230" cy="380" fill="#202329" opacity="1"></circle><circle r="15" cx="710" cy="380" fill="#202329" opacity="1"></circle><circle r="15" cx="770" cy="380" fill="#202329" opacity="1"></circle><circle r="15" cx="800" cy="380" fill="#202329" opacity="1"></circle><circle r="15" cx="830" cy="380" fill="#202329" opacity="1"></circle><circle r="15" cx="920" cy="380" fill="#202329" opacity="1"></circle><circle r="15" cx="950" cy="380" fill="#202329" opacity="1"></circle><circle r="15" cx="980" cy="380" fill="#202329" opacity="1"></circle><circle r="15" cx="230" cy="410" fill="#202329" opacity="1"></circle><circle r="15" cx="260" cy="410" fill="#202329" opacity="1"></circle><circle r="15" cx="380" cy="410" fill="#202329" opacity="1"></circle><circle r="15" cx="410" cy="410" fill="#202329" opacity="1"></circle><circle r="15" cx="440" cy="410" fill="#202329" opacity="1"></circle><circle r="15" cx="470" cy="410" fill="#202329" opacity="1"></circle><circle r="15" cx="500" cy="410" fill="#202329" opacity="1"></circle><circle r="15" cx="590" cy="410" fill="#202329" opacity="1"></circle><circle r="15" cx="620" cy="410" fill="#202329" opacity="1"></circle><circle r="15" cx="680" cy="410" fill="#202329" opacity="1"></circle><circle r="15" cx="710" cy="410" fill="#202329" opacity="1"></circle><circle r="15" cx="740" cy="410" fill="#202329" opacity="1"></circle><circle r="15" cx="770" cy="410" fill="#202329" opacity="1"></circle><circle r="15" cx="800" cy="410" fill="#202329" opacity="1"></circle><circle r="15" cx="830" cy="410" fill="#202329" opacity="1"></circle><circle r="15" cx="860" cy="410" fill="#202329" opacity="1"></circle><circle r="15" cx="890" cy="410" fill="#202329" opacity="1"></circle><circle r="15" cx="920" cy="410" fill="#202329" opacity="1"></circle><circle r="15" cx="980" cy="410" fill="#202329" opacity="1"></circle><circle r="15" cx="200" cy="440" fill="#202329" opacity="1"></circle><circle r="15" cx="230" cy="440" fill="#202329" opacity="1"></circle><circle r="15" cx="260" cy="440" fill="#202329" opacity="1"></circle><circle r="15" cx="290" cy="440" fill="#202329" opacity="1"></circle><circle r="15" cx="350" cy="440" fill="#202329" opacity="1"></circle><circle r="15" cx="410" cy="440" fill="#202329" opacity="1"></circle><circle r="15" cx="770" cy="440" fill="#202329" opacity="1"></circle><circle r="15" cx="800" cy="440" fill="#202329" opacity="1"></circle><circle r="15" cx="920" cy="440" fill="#202329" opacity="1"></circle><circle r="15" cx="350" cy="470" fill="#202329" opacity="1"></circle><circle r="15" cx="410" cy="470" fill="#202329" opacity="1"></circle><circle r="15" cx="770" cy="470" fill="#202329" opacity="1"></circle><circle r="15" cx="800" cy="470" fill="#202329" opacity="1"></circle><circle r="15" cx="890" cy="470" fill="#202329" opacity="1"></circle><circle r="15" cx="950" cy="470" fill="#202329" opacity="1"></circle><circle r="15" cx="140" cy="500" fill="#202329" opacity="1"></circle><circle r="15" cx="200" cy="500" fill="#202329" opacity="1"></circle><circle r="15" cx="260" cy="500" fill="#202329" opacity="1"></circle><circle r="15" cx="290" cy="500" fill="#202329" opacity="1"></circle><circle r="15" cx="350" cy="500" fill="#202329" opacity="1"></circle><circle r="15" cx="410" cy="500" fill="#202329" opacity="1"></circle><circle r="15" cx="710" cy="500" fill="#202329" opacity="1"></circle><circle r="15" cx="770" cy="500" fill="#202329" opacity="1"></circle><circle r="15" cx="830" cy="500" fill="#202329" opacity="1"></circle><circle r="15" cx="920" cy="500" fill="#202329" opacity="1"></circle><circle r="15" cx="950" cy="500" fill="#202329" opacity="1"></circle><circle r="15" cx="980" cy="500" fill="#202329" opacity="1"></circle><circle r="15" cx="140" cy="530" fill="#202329" opacity="1"></circle><circle r="15" cx="200" cy="530" fill="#202329" opacity="1"></circle><circle r="15" cx="230" cy="530" fill="#202329" opacity="1"></circle><circle r="15" cx="380" cy="530" fill="#202329" opacity="1"></circle><circle r="15" cx="710" cy="530" fill="#202329" opacity="1"></circle><circle r="15" cx="740" cy="530" fill="#202329" opacity="1"></circle><circle r="15" cx="770" cy="530" fill="#202329" opacity="1"></circle><circle r="15" cx="800" cy="530" fill="#202329" opacity="1"></circle><circle r="15" cx="860" cy="530" fill="#202329" opacity="1"></circle><circle r="15" cx="890" cy="530" fill="#202329" opacity="1"></circle><circle r="15" cx="950" cy="530" fill="#202329" opacity="1"></circle><circle r="15" cx="980" cy="530" fill="#202329" opacity="1"></circle><circle r="15" cx="140" cy="560" fill="#202329" opacity="1"></circle><circle r="15" cx="200" cy="560" fill="#202329" opacity="1"></circle><circle r="15" cx="230" cy="560" fill="#202329" opacity="1"></circle><circle r="15" cx="290" cy="560" fill="#202329" opacity="1"></circle><circle r="15" cx="350" cy="560" fill="#202329" opacity="1"></circle><circle r="15" cx="380" cy="560" fill="#202329" opacity="1"></circle><circle r="15" cx="740" cy="560" fill="#202329" opacity="1"></circle><circle r="15" cx="830" cy="560" fill="#202329" opacity="1"></circle><circle r="15" cx="950" cy="560" fill="#202329" opacity="1"></circle><circle r="15" cx="140" cy="590" fill="#202329" opacity="1"></circle><circle r="15" cx="290" cy="590" fill="#202329" opacity="1"></circle><circle r="15" cx="350" cy="590" fill="#202329" opacity="1"></circle><circle r="15" cx="380" cy="590" fill="#202329" opacity="1"></circle><circle r="15" cx="410" cy="590" fill="#202329" opacity="1"></circle><circle r="15" cx="740" cy="590" fill="#202329" opacity="1"></circle><circle r="15" cx="800" cy="590" fill="#202329" opacity="1"></circle><circle r="15" cx="860" cy="590" fill="#202329" opacity="1"></circle><circle r="15" cx="890" cy="590" fill="#202329" opacity="1"></circle><circle r="15" cx="980" cy="590" fill="#202329" opacity="1"></circle><circle r="15" cx="170" cy="620" fill="#202329" opacity="1"></circle><circle r="15" cx="200" cy="620" fill="#202329" opacity="1"></circle><circle r="15" cx="230" cy="620" fill="#202329" opacity="1"></circle><circle r="15" cx="290" cy="620" fill="#202329" opacity="1"></circle><circle r="15" cx="830" cy="620" fill="#202329" opacity="1"></circle><circle r="15" cx="890" cy="620" fill="#202329" opacity="1"></circle><circle r="15" cx="920" cy="620" fill="#202329" opacity="1"></circle><circle r="15" cx="980" cy="620" fill="#202329" opacity="1"></circle><circle r="15" cx="140" cy="650" fill="#202329" opacity="1"></circle><circle r="15" cx="350" cy="650" fill="#202329" opacity="1"></circle><circle r="15" cx="380" cy="650" fill="#202329" opacity="1"></circle><circle r="15" cx="740" cy="650" fill="#202329" opacity="1"></circle><circle r="15" cx="770" cy="650" fill="#202329" opacity="1"></circle><circle r="15" cx="800" cy="650" fill="#202329" opacity="1"></circle><circle r="15" cx="830" cy="650" fill="#202329" opacity="1"></circle><circle r="15" cx="860" cy="650" fill="#202329" opacity="1"></circle><circle r="15" cx="890" cy="650" fill="#202329" opacity="1"></circle><circle r="15" cx="950" cy="650" fill="#202329" opacity="1"></circle><circle r="15" cx="980" cy="650" fill="#202329" opacity="1"></circle><circle r="15" cx="140" cy="680" fill="#202329" opacity="1"></circle><circle r="15" cx="230" cy="680" fill="#202329" opacity="1"></circle><circle r="15" cx="260" cy="680" fill="#202329" opacity="1"></circle><circle r="15" cx="380" cy="680" fill="#202329" opacity="1"></circle><circle r="15" cx="410" cy="680" fill="#202329" opacity="1"></circle><circle r="15" cx="740" cy="680" fill="#202329" opacity="1"></circle><circle r="15" cx="800" cy="680" fill="#202329" opacity="1"></circle><circle r="15" cx="830" cy="680" fill="#202329" opacity="1"></circle><circle r="15" cx="140" cy="710" fill="#202329" opacity="1"></circle><circle r="15" cx="200" cy="710" fill="#202329" opacity="1"></circle><circle r="15" cx="290" cy="710" fill="#202329" opacity="1"></circle><circle r="15" cx="350" cy="710" fill="#202329" opacity="1"></circle><circle r="15" cx="380" cy="710" fill="#202329" opacity="1"></circle><circle r="15" cx="410" cy="710" fill="#202329" opacity="1"></circle><circle r="15" cx="470" cy="710" fill="#202329" opacity="1"></circle><circle r="15" cx="500" cy="710" fill="#202329" opacity="1"></circle><circle r="15" cx="560" cy="710" fill="#202329" opacity="1"></circle><circle r="15" cx="620" cy="710" fill="#202329" opacity="1"></circle><circle r="15" cx="650" cy="710" fill="#202329" opacity="1"></circle><circle r="15" cx="680" cy="710" fill="#202329" opacity="1"></circle><circle r="15" cx="710" cy="710" fill="#202329" opacity="1"></circle><circle r="15" cx="800" cy="710" fill="#202329" opacity="1"></circle><circle r="15" cx="830" cy="710" fill="#202329" opacity="1"></circle><circle r="15" cx="890" cy="710" fill="#202329" opacity="1"></circle><circle r="15" cx="980" cy="710" fill="#202329" opacity="1"></circle><circle r="15" cx="140" cy="740" fill="#202329" opacity="1"></circle><circle r="15" cx="230" cy="740" fill="#202329" opacity="1"></circle><circle r="15" cx="260" cy="740" fill="#202329" opacity="1"></circle><circle r="15" cx="380" cy="740" fill="#202329" opacity="1"></circle><circle r="15" cx="410" cy="740" fill="#202329" opacity="1"></circle><circle r="15" cx="560" cy="740" fill="#202329" opacity="1"></circle><circle r="15" cx="620" cy="740" fill="#202329" opacity="1"></circle><circle r="15" cx="650" cy="740" fill="#202329" opacity="1"></circle><circle r="15" cx="710" cy="740" fill="#202329" opacity="1"></circle><circle r="15" cx="920" cy="740" fill="#202329" opacity="1"></circle><circle r="15" cx="380" cy="770" fill="#202329" opacity="1"></circle><circle r="15" cx="410" cy="770" fill="#202329" opacity="1"></circle><circle r="15" cx="440" cy="770" fill="#202329" opacity="1"></circle><circle r="15" cx="530" cy="770" fill="#202329" opacity="1"></circle><circle r="15" cx="590" cy="770" fill="#202329" opacity="1"></circle><circle r="15" cx="620" cy="770" fill="#202329" opacity="1"></circle><circle r="15" cx="650" cy="770" fill="#202329" opacity="1"></circle><circle r="15" cx="680" cy="770" fill="#202329" opacity="1"></circle><circle r="15" cx="710" cy="770" fill="#202329" opacity="1"></circle><circle r="15" cx="890" cy="770" fill="#202329" opacity="1"></circle><circle r="15" cx="950" cy="770" fill="#202329" opacity="1"></circle><circle r="15" cx="980" cy="770" fill="#202329" opacity="1"></circle><circle r="15" cx="440" cy="800" fill="#202329" opacity="1"></circle><circle r="15" cx="500" cy="800" fill="#202329" opacity="1"></circle><circle r="15" cx="590" cy="800" fill="#202329" opacity="1"></circle><circle r="15" cx="650" cy="800" fill="#202329" opacity="1"></circle><circle r="15" cx="680" cy="800" fill="#202329" opacity="1"></circle><circle r="15" cx="710" cy="800" fill="#202329" opacity="1"></circle><circle r="15" cx="410" cy="830" fill="#202329" opacity="1"></circle><circle r="15" cx="440" cy="830" fill="#202329" opacity="1"></circle><circle r="15" cx="620" cy="830" fill="#202329" opacity="1"></circle><circle r="15" cx="650" cy="830" fill="#202329" opacity="1"></circle><circle r="15" cx="680" cy="830" fill="#202329" opacity="1"></circle><circle r="15" cx="710" cy="830" fill="#202329" opacity="1"></circle><circle r="15" cx="890" cy="830" fill="#202329" opacity="1"></circle><circle r="15" cx="380" cy="860" fill="#202329" opacity="1"></circle><circle r="15" cx="410" cy="860" fill="#202329" opacity="1"></circle><circle r="15" cx="470" cy="860" fill="#202329" opacity="1"></circle><circle r="15" cx="680" cy="860" fill="#202329" opacity="1"></circle><circle r="15" cx="890" cy="860" fill="#202329" opacity="1"></circle><circle r="15" cx="920" cy="860" fill="#202329" opacity="1"></circle><circle r="15" cx="950" cy="860" fill="#202329" opacity="1"></circle><circle r="15" cx="380" cy="890" fill="#202329" opacity="1"></circle><circle r="15" cx="440" cy="890" fill="#202329" opacity="1"></circle><circle r="15" cx="470" cy="890" fill="#202329" opacity="1"></circle><circle r="15" cx="500" cy="890" fill="#202329" opacity="1"></circle><circle r="15" cx="530" cy="890" fill="#202329" opacity="1"></circle><circle r="15" cx="710" cy="890" fill="#202329" opacity="1"></circle><circle r="15" cx="740" cy="890" fill="#202329" opacity="1"></circle><circle r="15" cx="770" cy="890" fill="#202329" opacity="1"></circle><circle r="15" cx="830" cy="890" fill="#202329" opacity="1"></circle><circle r="15" cx="890" cy="890" fill="#202329" opacity="1"></circle><circle r="15" cx="380" cy="920" fill="#202329" opacity="1"></circle><circle r="15" cx="440" cy="920" fill="#202329" opacity="1"></circle><circle r="15" cx="470" cy="920" fill="#202329" opacity="1"></circle><circle r="15" cx="500" cy="920" fill="#202329" opacity="1"></circle><circle r="15" cx="560" cy="920" fill="#202329" opacity="1"></circle><circle r="15" cx="620" cy="920" fill="#202329" opacity="1"></circle><circle r="15" cx="650" cy="920" fill="#202329" opacity="1"></circle><circle r="15" cx="680" cy="920" fill="#202329" opacity="1"></circle><circle r="15" cx="710" cy="920" fill="#202329" opacity="1"></circle><circle r="15" cx="740" cy="920" fill="#202329" opacity="1"></circle><circle r="15" cx="770" cy="920" fill="#202329" opacity="1"></circle><circle r="15" cx="800" cy="920" fill="#202329" opacity="1"></circle><circle r="15" cx="830" cy="920" fill="#202329" opacity="1"></circle><circle r="15" cx="860" cy="920" fill="#202329" opacity="1"></circle><circle r="15" cx="890" cy="920" fill="#202329" opacity="1"></circle><circle r="15" cx="950" cy="920" fill="#202329" opacity="1"></circle><circle r="15" cx="410" cy="950" fill="#202329" opacity="1"></circle><circle r="15" cx="440" cy="950" fill="#202329" opacity="1"></circle><circle r="15" cx="470" cy="950" fill="#202329" opacity="1"></circle><circle r="15" cx="560" cy="950" fill="#202329" opacity="1"></circle><circle r="15" cx="590" cy="950" fill="#202329" opacity="1"></circle><circle r="15" cx="620" cy="950" fill="#202329" opacity="1"></circle><circle r="15" cx="650" cy="950" fill="#202329" opacity="1"></circle><circle r="15" cx="680" cy="950" fill="#202329" opacity="1"></circle><circle r="15" cx="770" cy="950" fill="#202329" opacity="1"></circle><circle r="15" cx="800" cy="950" fill="#202329" opacity="1"></circle><circle r="15" cx="860" cy="950" fill="#202329" opacity="1"></circle><circle r="15" cx="950" cy="950" fill="#202329" opacity="1"></circle><circle r="15" cx="440" cy="980" fill="#202329" opacity="1"></circle><circle r="15" cx="470" cy="980" fill="#202329" opacity="1"></circle><circle r="15" cx="500" cy="980" fill="#202329" opacity="1"></circle><circle r="15" cx="530" cy="980" fill="#202329" opacity="1"></circle><circle r="15" cx="620" cy="980" fill="#202329" opacity="1"></circle><circle r="15" cx="710" cy="980" fill="#202329" opacity="1"></circle><circle r="15" cx="860" cy="980" fill="#202329" opacity="1"></circle><circle r="15" cx="920" cy="980" fill="#202329" opacity="1"></circle><svg xmlns="http://www.w3.org/2000/svg" version="1.1" xmlns:xlink="http://www.w3.org/1999/xlink" xmlns:svgjs="http://svgjs.com/svgjs" width="210" height="210" viewBox="0 0 210 210" x="125" y="125"><path d="   M69.3 0 L140.70000000000002 0 A70 70 0 0 1 210 69.3 L210 210  L69.3 210  A70 70 0 0 1 0 140.70000000000002 L0 0 L69.3 0 Z  M30 30 L30 140.70000000000002 A40 40 0 0 0 69.3 180 L180 180 L180 69.3 A40 40 0 0 0 140.70000000000002 30 L69.3 30 Z" fill="#649ca1" stroke-width="10"></path></svg><svg xmlns="http://www.w3.org/2000/svg" version="1.1" xmlns:xlink="http://www.w3.org/1999/xlink" xmlns:svgjs="http://svgjs.com/svgjs" width="210" height="210" viewBox="0 0 210 210" x="785" y="125"><path d="   M69.3 0 L140.70000000000002 0 A70 70 0 0 1 210 69.3 L210 210  L69.3 210  A70 70 0 0 1 0 140.70000000000002 L0 0 L69.3 0 Z  M30 30 L30 140.70000000000002 A40 40 0 0 0 69.3 180 L180 180 L180 69.3 A40 40 0 0 0 140.70000000000002 30 L69.3 30 Z" fill="#649ca1" stroke-width="10"></path></svg><svg xmlns="http://www.w3.org/2000/svg" version="1.1" xmlns:xlink="http://www.w3.org/1999/xlink" xmlns:svgjs="http://svgjs.com/svgjs" width="210" height="210" viewBox="0 0 210 210" x="125" y="785"><path d="   M69.3 0 L140.70000000000002 0 A70 70 0 0 1 210 69.3 L210 210  L69.3 210  A70 70 0 0 1 0 140.70000000000002 L0 0 L69.3 0 Z  M30 30 L30 140.70000000000002 A40 40 0 0 0 69.3 180 L180 180 L180 69.3 A40 40 0 0 0 140.70000000000002 30 L69.3 30 Z" fill="#649ca1" stroke-width="10"></path></svg><svg xmlns="http://www.w3.org/2000/svg" version="1.1" xmlns:xlink="http://www.w3.org/1999/xlink" xmlns:svgjs="http://svgjs.com/svgjs" width="90" height="90" x="185" y="185"><path d="M90 0 L90 45 L45 90 L0 90 L0 45 L45 0 L90 0  Z" fill="#d99a45"></path></svg><svg xmlns="http://www.w3.org/2000/svg" version="1.1" xmlns:xlink="http://www.w3.org/1999/xlink" xmlns:svgjs="http://svgjs.com/svgjs" width="90" height="90" x="845" y="185"><path d="M90 0 L90 45 L45 90 L0 90 L0 45 L45 0 L90 0  Z" fill="#d99a45"></path></svg><svg xmlns="http://www.w3.org/2000/svg" version="1.1" xmlns:xlink="http://www.w3.org/1999/xlink" xmlns:svgjs="http://svgjs.com/svgjs" width="90" height="90" x="185" y="845"><path d="M90 0 L90 45 L45 90 L0 90 L0 45 L45 0 L90 0  Z" fill="#d99a45"></path></svg><circle r="15" cx="380" cy="320" fill="#202329" opacity="1"></circle><circle r="15" cx="320" cy="380" fill="#202329" opacity="1"></circle><circle r="15" cx="440" cy="320" fill="#202329" opacity="1"></circle><circle r="15" cx="320" cy="440" fill="#202329" opacity="1"></circle><circle r="15" cx="500" cy="320" fill="#202329" opacity="1"></circle><circle r="15" cx="320" cy="500" fill="#202329" opacity="1"></circle><circle r="15" cx="560" cy="320" fill="#202329" opacity="1"></circle><circle r="15" cx="320" cy="560" fill="#202329" opacity="1"></circle><circle r="15" cx="620" cy="320" fill="#202329" opacity="1"></circle><circle r="15" cx="320" cy="620" fill="#202329" opacity="1"></circle><circle r="15" cx="680" cy="320" fill="#202329" opacity="1"></circle><circle r="15" cx="320" cy="680" fill="#202329" opacity="1"></circle><circle r="15" cx="740" cy="320" fill="#202329" opacity="1"></circle><circle r="15" cx="320" cy="740" fill="#202329" opacity="1"></circle><circle r="15" cx="740" cy="740" fill="#202329" opacity="1"></circle><circle r="15" cx="740" cy="770" fill="#202329" opacity="1"></circle><circle r="15" cx="740" cy="800" fill="#202329" opacity="1"></circle><circle r="15" cx="740" cy="830" fill="#202329" opacity="1"></circle><circle r="15" cx="860" cy="770" fill="#202329" opacity="1"></circle><circle r="15" cx="860" cy="800" fill="#202329" opacity="1"></circle><circle r="15" cx="860" cy="830" fill="#202329" opacity="1"></circle><circle r="15" cx="860" cy="860" fill="#202329" opacity="1"></circle><circle r="15" cx="770" cy="740" fill="#202329" opacity="1"></circle><circle r="15" cx="800" cy="740" fill="#202329" opacity="1"></circle><circle r="15" cx="830" cy="740" fill="#202329" opacity="1"></circle><circle r="15" cx="860" cy="740" fill="#202329" opacity="1"></circle><circle r="15" cx="740" cy="860" fill="#202329" opacity="1"></circle><circle r="15" cx="770" cy="860" fill="#202329" opacity="1"></circle><circle r="15" cx="800" cy="860" fill="#202329" opacity="1"></circle><circle r="15" cx="830" cy="860" fill="#202329" opacity="1"></circle><circle r="15" cx="800" cy="800" fill="#202329" opacity="1"></circle><svg fill="currentColor" x="425" y="425" width="270" height="270" xmlns="http://www.w3.org/2000/svg" viewBox="368 344 560 560" fill-rule="evenodd"><path d="M 612 370.680 C 605.581 371.340, 593.769 374.177, 587.303 376.610 C 577.535 380.287, 571.136 383.739, 536.508 404.013 C 444.511 457.874, 446.573 456.566, 435.391 468.141 C 419.795 484.284, 410.376 504.003, 407.035 527.500 C 406.438 531.699, 406.032 568.922, 406.020 620.526 L 406 706.552 407.036 715.026 C 409.111 731.997, 414.360 746.612, 423.308 760.332 C 434.049 776.801, 445.084 786.419, 468.500 799.721 C 476.200 804.096, 492.625 813.505, 505 820.632 C 567.187 856.445, 564.571 855.158, 575.500 855.315 L 582.500 855.416 588 852.847 C 591.275 851.318, 598.680 845.725, 606.301 839.023 L 619.102 827.768 618.801 826.227 C 618.626 825.332, 614.313 822.956, 608.500 820.552 C 591.344 813.460, 576.383 805.417, 508.067 766.561 C 487.108 754.640, 474.287 738.470, 467.673 715.618 L 465.612 708.500 465.254 627 L 464.895 545.500 466.002 537 C 467.331 526.795, 471.533 514.063, 476.135 506.300 C 480.085 499.634, 491.704 486.988, 497.611 482.924 C 499.888 481.357, 516.095 471.798, 533.626 461.681 C 551.157 451.564, 570 440.680, 575.500 437.493 C 587.628 430.466, 596.670 426.533, 605.704 424.352 L 612.500 422.712 624 422.760 L 635.500 422.807 643.500 424.905 C 647.900 426.058, 655.775 429.173, 661 431.827 C 678.970 440.953, 750.218 482.943, 755.745 487.666 C 766.183 496.583, 773.392 507.536, 778.671 522.500 L 781.493 530.500 781.996 574.202 L 782.500 617.903 783.677 619.078 C 784.324 619.725, 785.926 619.984, 787.237 619.655 C 789.541 619.077, 835.611 571.684, 839.245 566.155 L 840.989 563.500 840.982 544.500 L 840.974 525.500 839.110 516.500 C 834.394 493.727, 822.741 474.215, 804.642 458.786 L 797.267 452.500 738.204 418.720 C 705.718 400.140, 674.946 382.969, 669.820 380.560 C 651.814 372.100, 631.666 368.658, 612 370.680 M 628.250 634.134 C 627.563 634.830, 627 636.438, 627 637.707 L 627 640.013 643.750 658.843 C 669.777 688.101, 687.335 707.947, 704.149 727.111 L 719.600 744.722 720.800 748.727 C 722.485 754.352, 722.262 758.825, 720.054 763.689 C 719.009 765.992, 709.681 777.424, 699.326 789.093 C 688.972 800.762, 678.700 812.390, 676.500 814.934 C 674.300 817.477, 663.496 829.670, 652.490 842.029 C 641.485 854.388, 631.247 865.997, 629.740 867.827 C 626.445 871.827, 626.192 875.497, 629.104 877.056 L 631.208 878.182 654.854 877.762 L 678.500 877.343 684.500 875.142 C 687.800 873.932, 692.813 871.408, 695.641 869.534 L 700.781 866.125 745.017 817.312 C 770.304 789.409, 790.046 766.787, 791.104 764.500 C 793.320 759.713, 793.556 751.211, 791.597 746.718 C 790.195 743.500, 780.233 732.123, 738 685.504 C 725.625 671.843, 712.276 657.029, 708.336 652.583 C 700.747 644.021, 693.567 638.978, 684.127 635.582 L 678.500 633.558 654 633.212 L 629.500 632.867 628.250 634.134 M 835.500 633.963 C 834.400 634.423, 830.747 637.882, 827.383 641.650 C 824.018 645.417, 811.306 659.504, 799.133 672.952 L 777 697.404 777 700.163 L 777 702.922 791.039 718.869 C 798.760 727.640, 805.691 735.051, 806.442 735.339 C 808.301 736.053, 809.149 735.274, 821.865 721.160 L 832.984 708.820 836.001 702.498 C 840.420 693.238, 841 688.374, 841 660.564 L 841 635.400 839.800 634.200 C 838.431 632.831, 838.232 632.821, 835.500 633.963 M 800.245 780.250 C 788.789 792.487, 774.401 808.317, 773.138 810.075 C 772.389 811.117, 772.033 812.990, 772.348 814.235 C 773.218 817.678, 815.704 864.883, 821.692 869.059 C 824.548 871.051, 829.948 873.745, 833.692 875.047 L 840.500 877.412 863.667 877.786 L 886.834 878.159 888.917 877.044 C 891.239 875.802, 891.592 872.983, 889.840 869.684 C 889.201 868.483, 882.542 860.525, 875.041 852 C 867.541 843.475, 854.501 828.625, 846.063 819 C 821.161 790.593, 806.977 775, 806.039 775 C 805.556 775, 802.949 777.362, 800.245 780.250"></path></svg></svg>