<svg xmlns="http://www.w3.org/2000/svg" viewBox="0 0 1080 1080" fill="currentColor">
  <path d="M265.545,379.652 C335.379,259.392 540,217.402 540,217.402 C540,217.402 749.534,257.726 819.378,378.701 C889.223,499.675 819.378,701.299 819.378,701.299 C819.378,701.299 679.689,862.598 540,862.598 C400.311,862.598 260.622,701.299 260.622,701.299 C260.622,701.299 195.085,500.99 265.545,379.652 ZM541.66,308.227 C413.771,308.227 309.887,412.111 309.887,540 C309.887,642.631 376.789,729.803 469.311,760.232 C476.395,724.244 488.163,664.465 494.161,634 C465.631,613.058 463.5,570.645 463.5,540 C463.5,497.788 497.788,463.5 540,463.5 C582.212,463.5 616.5,497.788 616.5,540 C616.5,570.362 613.426,612.274 585.091,633.413 C591.244,663.844 603.693,725.411 610.934,761.22 C705.045,731.727 773.434,643.765 773.434,540 C773.434,412.111 669.549,308.227 541.66,308.227 Z" transform="matrix(1.627,0,0,1.627,-341.098,-338.397)"/>
</svg>
